<svg xmlns="http://www.w3.org/2000/svg" viewBox="0 0 199.94 281.01"><defs><style>.cls-1{fill:#1281fc;}.cls-2{fill:#0460ba;}.cls-3{fill:#043877;}.cls-4{fill:#10417d;}</style></defs><g id="Capa_2" data-name="Capa 2"><g id="Capa_2-2" data-name="Capa 2"><path class="cls-1" d="M92.14,31.6a4.62,4.62,0,0,0,3.64,5.19,4.41,4.41,0,0,0,4.15-2.17c2.51-4.58,4.78-8.31,6.49-11a77.83,77.83,0,0,1,11-13.94s5.75-5.69,9-4.87a4.42,4.42,0,0,1,1.84,1,4.67,4.67,0,0,1,1.17,2.42c.59,3.5-8.45,13.53-10.82,16.28A71.69,71.69,0,0,0,109,38.87a5.1,5.1,0,0,0,1.56,6,4.9,4.9,0,0,0,3.81.61c3.89-1.86,36.1-17.17,39.9-16a4.22,4.22,0,0,1,2.3,1.56,4.47,4.47,0,0,1,.3,3.2c-1,4.25-12.88,8.63-19,11.26a98.72,98.72,0,0,0-17.31,9.69,19.42,19.42,0,0,0-9.48,11.17,19.06,19.06,0,0,0,.52,12.59,21.85,21.85,0,0,0,4.54,6.19c2.5,2.36,3.84,2.45,7.45,5.19,3,2.32,7.17,5.47,6.51,7.68-.4,1.34-2.39,1.82-5.65,2.62-3.87,1-6.06,1.5-8.43.91-3.36-.82-4.6-3.3-10.26-10.77-2.87-3.79-5.31-6.79-6.88-8.7A26.18,26.18,0,0,1,80.28,60.25c-6.78-2.42-9-5.4-9.65-7.71-.66-2.16-.09-3.94-.52-11-.11-1.75-.23-3.17-.32-4.09A97.17,97.17,0,0,0,64.72,28c-1.73-2.83-3.67-5.65-3.24-8.76a3.31,3.31,0,0,1,1.29-2.53,3,3,0,0,1,2.47.13C68.16,18,69.45,21.43,71.41,25a52.84,52.84,0,0,0,5.06,7.59l6.62-2.85A56.25,56.25,0,0,1,84,15c.24-1.18,3.06-15,6.93-15,1.12,0,2.15,1.14,2.6,1.89,1,1.77.41,3.89.08,5.12-.92,3.5-.54,7.22-1,10.8A75.3,75.3,0,0,0,92.14,31.6Z"/><path class="cls-1" d="M192.55,88.77a67.08,67.08,0,0,0-2.72-10.65c-3-8.56-7.73-22.32-20.75-29-11.46-5.86-23.18-3.08-27-2.17-7.84,1.86-12.73,5.36-19.21,10-7.57,5.41-9.68,9.05-10.45,12.4a14.88,14.88,0,0,0-.33,4.61c13.77,1.82,28.17,4.08,43.11,6.88Q174.68,84.51,192.55,88.77Z"/><path class="cls-1" d="M170.57,88.77c.34.48,14.71,18.31,14.71,18.31l5.63-13.33Z"/><path class="cls-2" d="M171.79,136.4a4.63,4.63,0,0,0-6.32.53,4.41,4.41,0,0,0-.22,4.68c2.71,4.47,4.78,8.31,6.24,11.14A77.43,77.43,0,0,1,178,169.26s2,7.84-.33,10.26a4.41,4.41,0,0,1-1.77,1.09,4.69,4.69,0,0,1-2.68-.21c-3.32-1.25-7.44-14.11-8.62-17.54A72.41,72.41,0,0,0,157,147.33a5.12,5.12,0,0,0-5.94-1.66,4.88,4.88,0,0,0-2.44,3c-.36,4.3-3.33,39.84-6.23,42.55a4.22,4.22,0,0,1-2.51,1.2,4.48,4.48,0,0,1-2.92-1.35c-3.17-3-1-15.48-.19-22.05a98.15,98.15,0,0,0,.33-19.84,19.4,19.4,0,0,0-4.88-13.81,19.11,19.11,0,0,0-11.15-5.88,21.66,21.66,0,0,0-7.63.81c-3.29,1-4,2.09-8.24,3.82-3.53,1.47-8.33,3.45-9.91,1.77-1-1-.37-3,.58-6.2,1.12-3.83,1.76-6,3.45-7.75,2.41-2.48,5.17-2.31,14.48-3.45,4.72-.57,8.54-1.16,11-1.57a26.2,26.2,0,0,1,28.2-5.17c5.5-4.65,9.16-5,11.51-4.47,2.2.52,3.45,1.91,9.8,5.11,1.56.78,2.86,1.39,3.7,1.77a96.45,96.45,0,0,0,10.68.36c3.32-.07,6.73-.33,9.21,1.6.48.38,1.57,1.25,1.54,2.4a3,3,0,0,1-1.36,2.07c-2.49,1.92-6.08,1.32-10.17,1.21a52.67,52.67,0,0,0-9.11.56q-.43,3.57-.86,7.16a55.5,55.5,0,0,1,12.31,8.22c.9.79,11.39,10.16,9.46,13.52-.55,1-2.07,1.28-2.94,1.29-2,0-3.56-1.6-4.47-2.5-2.56-2.56-6-4.1-8.83-6.3A75.19,75.19,0,0,0,171.79,136.4Z"/><path class="cls-2" d="M71.87,194.43a66.64,66.64,0,0,0,10.57,3c8.89,1.74,23.18,4.55,35.49-3.35,10.83-7,14.33-18.48,15.48-22.28,2.33-7.71,1.77-13.7,1-21.63-.87-9.27-3-12.92-5.47-15.28a14.8,14.8,0,0,0-3.81-2.59c-8.5,11-17.7,22.29-27.63,33.79C88.87,176.11,80.29,185.55,71.87,194.43Z"/><path class="cls-2" d="M82.92,175.43c-.58.06-23.22,3.51-23.22,3.51l8.69,11.56Z"/><path class="cls-3" d="M40,152.46a4.6,4.6,0,0,0,2.85-5.66,4.4,4.4,0,0,0-3.87-2.63c-5.23,0-9.59-.27-12.76-.51A77.33,77.33,0,0,1,8.7,140.59S1,138.22.13,135a4.46,4.46,0,0,1,0-2.08,4.69,4.69,0,0,1,1.58-2.18c2.8-2.17,15.92,1,19.46,1.82a72,72,0,0,0,17.2,1.64,5.09,5.09,0,0,0,4.52-4.2,4.84,4.84,0,0,0-1.27-3.64c-3.48-2.55-32.23-23.65-33-27.54A4.26,4.26,0,0,1,8.88,96a4.45,4.45,0,0,1,2.68-1.79c4.21-1.13,13.7,7.25,18.89,11.36a99.51,99.51,0,0,0,16.74,10.65,19.4,19.4,0,0,0,14.33,3,19,19,0,0,0,10.84-6.43,21.72,21.72,0,0,0,3.3-6.93c.89-3.32.33-4.54,1-9,.6-3.78,1.41-8.91,3.68-9.37,1.36-.28,2.73,1.24,5,3.72,2.68,3,4.19,4.64,4.8,7,.86,3.35-.72,5.61-4.62,14.14-2,4.33-3.47,7.89-4.4,10.19a26.17,26.17,0,0,1-10.33,26.74c1.09,7.12-.5,10.44-2.21,12.15s-3.43,1.95-9.47,5.69c-1.48.92-2.68,1.71-3.44,2.23a96.62,96.62,0,0,0-5.89,8.92c-1.67,2.87-3.24,5.91-6.18,7a3.29,3.29,0,0,1-2.85.06,3,3,0,0,1-1.05-2.24c-.34-3.12,2.05-5.88,4.28-9.3a52.85,52.85,0,0,0,4.29-8.06l-5.66-4.48a55.86,55.86,0,0,1-13.44,6.21c-1.15.35-14.62,4.4-16.47,1-.54-1,0-2.44.43-3.19,1.06-1.76,3.23-2.2,4.47-2.5,3.52-.84,6.61-2.94,10-4.23A75.06,75.06,0,0,0,40,152.46Z"/><path class="cls-3" d="M42.7,37a66.48,66.48,0,0,0-8.08,7.45c-6.13,6.66-16,17.39-15.69,32,.27,12.87,8.27,21.88,10.91,24.84,5.35,6,10.75,8.67,17.91,12.18,8.36,4.1,12.56,4.23,15.88,3.32a15.23,15.23,0,0,0,4.2-1.89c-4.92-13-9.75-26.74-14.37-41.22Q47.43,54.72,42.7,37Z"/><path class="cls-3" d="M53.13,56.31c.25-.53,9.14-21.64,9.14-21.64L47.87,36Z"/><path class="cls-4" d="M15.74,216.21H28v20.33H46.37V216.21H58.65v63.53H46.37V248H28v31.77H15.74Z"/><path class="cls-4" d="M79.64,216.21h19.9c12.71,0,17.16,8.68,17.16,14.82a13.08,13.08,0,0,1-4,9.46,20.45,20.45,0,0,1,9.74,17.44c0,10.87-8.18,21.81-23.71,21.81H79.64Zm17.79,21.6c4.44,0,7.41-2.12,7.41-6.07,0-4.1-3-6.21-7.13-6.21H91.92v12.28Zm0,30.49c8.4,0,11.71-5.86,11.71-10.8s-3.1-10.8-11.71-10.8H91.92v21.6Z"/><path class="cls-4" d="M134.42,248c0-18.28,15-33,33.6-33a33.63,33.63,0,0,1,21.81,7.83l-3.59,14.83a20.72,20.72,0,0,0-17.79-10.38c-11.51,0-20.33,9.25-20.33,20.75s8.82,20.76,20.33,20.76a20.72,20.72,0,0,0,17.79-10.38l3.59,14.82A34,34,0,0,1,168,281C149.46,281,134.42,266.26,134.42,248Z"/></g></g></svg>