<?xml version="1.0" standalone="no"?>
<!DOCTYPE svg PUBLIC "-//W3C//DTD SVG 20010904//EN"
 "http://www.w3.org/TR/2001/REC-SVG-20010904/DTD/svg10.dtd">
<svg version="1.0" xmlns="http://www.w3.org/2000/svg"
 width="537.000000pt" height="423.000000pt" viewBox="0 0 537.000000 423.000000"
 preserveAspectRatio="xMidYMid meet">
<metadata>
Created by potrace 1.16, written by Peter Selinger 2001-2019
</metadata>
<g transform="translate(0.000000,423.000000) scale(0.100000,-0.100000)"
fill="#000000" stroke="none">
<path d="M2583 3338 c-19 -24 -35 -83 -47 -168 -11 -81 -13 -85 -38 -88 -23
-3 -32 5 -68 62 -40 63 -61 79 -75 56 -4 -6 9 -45 29 -87 27 -56 36 -88 36
-127 0 -57 26 -110 62 -127 13 -6 33 -33 47 -65 23 -53 79 -114 105 -114 13 0
49 -37 129 -134 30 -36 45 -46 68 -46 29 0 99 24 99 34 0 9 -53 56 -97 87 -53
37 -73 74 -73 133 0 36 6 52 31 80 37 43 125 99 259 166 84 43 100 54 100 74
0 13 -7 26 -15 30 -8 3 -87 -26 -176 -64 -88 -39 -169 -70 -180 -70 -12 0 -21
9 -25 25 -7 29 18 75 106 194 63 85 71 114 32 119 -31 5 -161 -128 -197 -203
-16 -31 -35 -59 -43 -63 -39 -14 -52 75 -33 223 8 56 1 85 -19 85 -4 0 -12 -6
-17 -12z"/>
<path d="M2110 2964 c-105 -121 -115 -141 -115 -244 0 -83 1 -86 45 -158 40
-66 53 -78 120 -116 130 -73 180 -87 233 -67 l24 10 -33 66 c-34 68 -96 250
-159 464 -19 69 -37 126 -38 127 -2 2 -36 -35 -77 -82z"/>
<path d="M3039 2961 c-19 -4 -64 -25 -100 -46 -118 -71 -149 -100 -162 -156
l-7 -26 83 -6 c90 -6 260 -39 465 -91 72 -18 132 -30 132 -27 0 3 -17 56 -37
116 -32 92 -45 117 -83 156 -72 74 -175 102 -291 80z"/>
<path d="M2495 2613 c-4 -10 -10 -53 -15 -95 -6 -61 -13 -85 -34 -112 -30 -40
-82 -60 -129 -51 -43 9 -171 78 -281 150 -93 61 -117 65 -124 17 -3 -17 25
-42 140 -127 122 -91 143 -110 143 -133 l0 -27 -90 0 c-49 0 -126 2 -170 5
l-80 5 0 -30 c0 -28 4 -30 75 -53 55 -18 101 -25 169 -27 75 -1 97 -5 105 -17
15 -25 -4 -40 -129 -103 -111 -55 -135 -78 -98 -92 24 -9 120 13 179 42 59 29
77 31 94 10 10 -11 5 -29 -26 -89 -29 -57 -36 -78 -27 -87 19 -19 39 -4 84 66
28 44 55 73 80 85 53 28 89 74 89 117 0 23 9 46 27 67 39 46 54 92 57 167 3
51 11 82 35 131 41 86 40 111 -8 159 -43 43 -56 47 -66 22z"/>
<path d="M3831 2594 c-26 -33 -26 -55 -3 -82 29 -35 67 -38 96 -8 31 30 33 69
6 96 -29 29 -74 26 -99 -6z"/>
<path d="M3155 2447 c-11 -7 -55 -12 -100 -12 -71 0 -89 -4 -145 -33 -49 -24
-82 -33 -133 -37 -100 -6 -130 -31 -139 -116 -3 -32 -2 -34 27 -31 17 2 54 14
84 28 109 49 197 22 222 -69 8 -26 11 -114 10 -233 -1 -166 1 -193 15 -198 16
-6 54 9 54 22 0 4 9 83 20 177 21 178 33 210 68 189 18 -10 89 -145 121 -229
10 -27 25 -54 34 -59 20 -13 47 9 47 38 0 60 -60 221 -105 282 -12 17 -13 23
-2 38 18 25 37 18 152 -59 102 -69 119 -75 129 -49 5 12 -13 36 -62 83 -37 36
-80 74 -95 84 -28 19 -36 50 -14 64 6 4 46 10 87 13 68 5 75 7 78 27 4 24 -9
28 -123 36 -40 3 -75 14 -105 31 -49 28 -93 33 -125 13z"/>
<path d="M2867 2221 c-41 -69 -175 -224 -385 -442 l-53 -56 108 -21 c59 -12
123 -22 141 -22 106 0 196 58 254 165 36 67 38 75 38 162 0 115 -14 184 -45
217 -30 33 -37 33 -58 -3z"/>
<path d="M2214 1567 c-2 -7 -3 -74 -2 -148 l3 -134 32 -3 32 -3 3 58 3 58 63
3 62 3 0 -61 0 -60 35 0 35 0 0 150 0 150 -35 0 -35 0 0 -60 0 -61 -62 3 -63
3 -3 58 c-3 56 -4 57 -33 57 -16 0 -32 -6 -35 -13z"/>
<path d="M2547 1573 c-4 -3 -7 -71 -7 -151 l0 -144 105 4 c121 4 143 16 152
85 4 32 1 45 -15 61 -16 16 -19 29 -15 60 5 34 1 45 -20 66 -24 24 -33 26
-110 26 -46 0 -87 -3 -90 -7z"/>
<path d="M2932 1560 c-44 -27 -72 -76 -72 -128 0 -52 19 -91 60 -126 43 -35
131 -37 180 -3 43 29 46 40 15 57 -21 11 -30 11 -63 -4 -106 -48 -174 96 -71
150 29 14 33 14 72 -5 37 -19 43 -19 64 -6 31 21 29 30 -14 60 -48 32 -123 34
-171 5z"/>
<path d="M1624 1482 c-15 -10 -34 -47 -34 -67 0 -23 45 -65 70 -65 28 0 70 43
70 73 0 47 -67 85 -106 59z"/>
</g>
</svg>
